<svg height='100px' width='100px'  fill="#000000" xmlns="http://www.w3.org/2000/svg" xmlns:xlink="http://www.w3.org/1999/xlink" version="1.1" x="0px" y="0px" viewBox="0 0 10 10" style="enable-background:new 0 0 10 10;" xml:space="preserve"><g><g><path d="M3.418,3.863C3.46,3.875,3.506,3.887,3.556,3.9l0.018,0.527c0,0.371,0.149,0.72,0.421,0.985    c0.271,0.263,0.624,0.409,0.998,0.411h0.005c0.372,0,0.726-0.144,0.996-0.405c0.273-0.263,0.425-0.612,0.428-0.981L6.441,3.9    c0.051-0.013,0.098-0.025,0.141-0.038c0.204-0.056,0.322-0.124,0.322-0.197c0-0.009-0.002-0.019-0.006-0.028    c0.003-0.017,0.006-0.033,0.006-0.051v-0.05c0-0.11-0.083-0.2-0.186-0.2H6.652c0-0.652-0.312-1.223-0.777-1.544L5.727,2.738    c-0.012,0.077-0.078,0.13-0.153,0.13c-0.007,0-0.016,0-0.024-0.002C5.466,2.854,5.409,2.775,5.421,2.69l0.181-1.163    C5.42,1.451,5.207,1.409,5,1.409S4.58,1.451,4.397,1.528L4.579,2.69C4.591,2.775,4.534,2.854,4.45,2.867    C4.442,2.868,4.434,2.869,4.426,2.869c-0.074,0-0.141-0.054-0.153-0.13L4.125,1.793C3.711,2.078,3.421,2.56,3.36,3.119    C3.844,3.472,5,3.635,5,3.635C4.101,3.573,3.348,3.337,3.348,3.337H3.281c-0.103,0-0.185,0.09-0.185,0.2v0.05    c0,0.018,0.003,0.034,0.006,0.051C3.099,3.647,3.096,3.657,3.096,3.666C3.096,3.739,3.214,3.807,3.418,3.863z M5.135,4.117    c0-0.008,0-0.016,0.001-0.022C5.396,4.087,5.641,4.06,5.861,4.023C5.88,4.047,5.892,4.08,5.892,4.117V4.26    c0,0.074-0.047,0.134-0.104,0.134H5.239c-0.057,0-0.104-0.06-0.104-0.134V4.117z M4.108,4.117c0-0.037,0.012-0.07,0.031-0.094    c0.22,0.036,0.466,0.064,0.725,0.071c0.001,0.007,0.001,0.015,0.001,0.022V4.26c0,0.074-0.047,0.134-0.104,0.134H4.212    c-0.057,0-0.104-0.06-0.104-0.134V4.117z M3.994,3.998C3.979,4.034,3.97,4.075,3.97,4.117V4.26c0,0.15,0.108,0.272,0.242,0.272    h0.549c0.12,0,0.22-0.098,0.239-0.226c0.02,0.128,0.119,0.226,0.239,0.226h0.549c0.134,0,0.242-0.122,0.242-0.272V4.117    c0-0.042-0.009-0.083-0.024-0.12c0.054-0.01,0.105-0.02,0.155-0.031L6.144,4.428v0.006C6.141,5.036,5.617,5.545,4.997,5.545H4.993    c-0.3-0.001-0.586-0.119-0.805-0.332C3.97,5,3.849,4.721,3.851,4.425V4.423L3.836,3.966C3.887,3.977,3.94,3.988,3.994,3.998z"></path><path d="M4.701,5.167h0.598c0.038,0,0.069-0.032,0.069-0.069S5.337,5.028,5.299,5.028H4.701c-0.039,0-0.07,0.032-0.07,0.069    S4.663,5.167,4.701,5.167z"></path></g><path d="M3.753,7.021c0.088,0.214,0.123,0.407,0.138,0.542h2.218c0.015-0.135,0.049-0.328,0.138-0.542   c0.104-0.257,0.26-0.479,0.461-0.666L6.164,6.131c0,0-0.222-0.073-0.31-0.308c0,0-0.235,0.306-0.854,0.308   C4.381,6.129,4.146,5.823,4.146,5.823c-0.088,0.235-0.31,0.308-0.31,0.308L3.292,6.354C3.494,6.541,3.649,6.764,3.753,7.021z"></path><path d="M8.255,7.671c0,0-0.015-0.582-0.412-0.847L7.11,6.521C6.769,6.771,6.563,7.12,6.498,7.563h0.088   c0.209,0,0.378,0.151,0.378,0.337v0.692h1.291V7.671z"></path><path d="M6.578,8.592V7.947H3.421v0.645H5H6.578z M6.285,8.096c0.084,0,0.151,0.068,0.151,0.152c0,0.083-0.067,0.15-0.151,0.15   s-0.151-0.067-0.151-0.15C6.134,8.164,6.201,8.096,6.285,8.096z M3.714,8.398c-0.083,0-0.151-0.067-0.151-0.15   c0-0.084,0.067-0.152,0.151-0.152c0.084,0,0.152,0.068,0.152,0.152C3.866,8.331,3.799,8.398,3.714,8.398z"></path><path d="M3.414,7.563h0.088C3.437,7.12,3.231,6.771,2.89,6.521L2.157,6.824C1.759,7.089,1.745,7.671,1.745,7.671v0.921h1.291V7.899   C3.036,7.714,3.206,7.563,3.414,7.563z"></path></g></svg>