<svg height='100px' width='100px'  fill="#000000" xmlns="http://www.w3.org/2000/svg" xmlns:xlink="http://www.w3.org/1999/xlink" version="1.1" x="0px" y="0px" viewBox="0 0 66 66" enable-background="new 0 0 66 66" xml:space="preserve"><g><path d="M39.512,42.504l0.22-2.837c-6.314-10.469-5.703-19.878-4.203-25.715c-6.453-1.687-11.734,2.679-12.208,3.687l-3.649,7.728   h-3.238c-0.264,1.586-1.375,1.957-1.643,3.697c0.532,0.247-0.532,0.054,6.094,0.124c0.745,0,1.414-0.42,1.729-1.089l1.925-4.079   l1.419,18.484c0.013,0.209,0.142,0.379,0.316,0.471l-0.539,19.078c-0.045,1.582,1.201,2.901,2.784,2.945   c1.671,0.028,2.903-1.27,2.946-2.784l0.539-19.087c0.001-0.027-0.006-0.052-0.006-0.079h1.469c0,0.027-0.006,0.052-0.006,0.079   l0.539,19.087C34.043,63.77,35.317,65,36.862,65c1.636,0,2.912-1.351,2.867-2.946l-0.539-19.08   C39.363,42.881,39.492,42.712,39.512,42.504z"></path><path d="M37.248,14.516c-0.267-0.115-0.544-0.21-0.812-0.296c-1.376,5.426-1.977,14.061,3.42,23.756l0.105-1.309   C35.567,27.737,35.996,19.799,37.248,14.516z"></path><path d="M38.938,15.3c-0.267-0.153-0.535-0.287-0.802-0.401c-1.108,4.814-1.5,11.854,1.968,19.83l0.134-1.767   C37.716,25.97,37.993,19.789,38.938,15.3z"></path><path d="M45.854,25.368l-3.639-7.728c-0.275-0.574-1.854-1.538-2.407-1.863c-0.764,3.84-1.013,8.912,0.63,14.653l0.497-6.531   l1.977,4.2c0.315,0.669,0.993,1.089,1.729,1.089h5.225c0.067-1.118,0.372-2.436,1.156-3.821H45.854z"></path><path d="M52.78,28.969c0.487-0.248,0.85-0.697,0.974-1.242c-0.076-0.22-0.191-0.449-0.315-0.688   C53.066,27.737,52.866,28.386,52.78,28.969z"></path><path d="M14.98,26.393c1.383-1.844,0.019-4.458-2.216-4.489c-2.306-0.03-3.621,2.565-2.351,4.402   c1.636,2.371,1.196,3.331,1.268,3.71h-0.325v1.853h2.743v-1.853h-0.325C13.888,29.234,13.582,28.256,14.98,26.393z"></path><path d="M54.423,24.903c-0.107-0.148-0.264-0.213-0.414-0.192c0.004-0.101,0.351-7.996,0.329-7.498   c-0.063-0.204-0.165-0.038-0.165-0.038l-0.802,5.761l-0.144-0.047l-0.587-5.542c-0.036-0.399-0.172-0.171-0.172-0.171   c0.004,0.101,0.293,8.035,0.275,7.537c-0.105,0.023-0.205,0.087-0.28,0.19c-2.682,3.671-1.32,7.066-1.261,7.209   c0.115,0.277,0.397,0.409,0.644,0.258c0.236-0.148,0.33-0.499,0.211-0.788c-0.011-0.028-1.13-2.818,1.121-5.898   c0.048-0.063,0.08-0.136,0.1-0.213c0.109,0.012,0.22,0.009,0.328-0.014c0.019,0.082,0.054,0.159,0.103,0.227   c2.228,3.05,1.169,5.779,1.121,5.901c-0.119,0.286-0.025,0.638,0.211,0.785c0.246,0.15,0.528,0.021,0.644-0.258   C55.743,31.969,57.105,28.574,54.423,24.903z"></path><path d="M28.156,8.627c4.919-1.328,9.105-0.092,9.105-0.092c0.101-0.092,1.072-0.981,0.971-0.888   c0.183-3.838-2.464-5.203-2.464-5.203c-1.356,1.459-1.56,4.678-1.621,4.873c-0.227-3.914,1.254-5.456,1.301-5.56   c-3.197-1.704-5.395,0-5.395,0c1.533,2.043,1.216,5.448,1.237,5.551c-0.501-3.226-1.17-3.882-1.667-4.717   c-2.885,1.649-2.363,5.056-2.363,5.056C27.35,7.748,28.248,8.728,28.156,8.627z"></path><path d="M28.087,10.069c0.898,1.649,2.638,2.766,4.644,2.766c1.997,0,3.728-1.108,4.635-2.748c0.293-0.064,0.458-0.11,0.458-0.11   l1.081-1.154v-0.44l-0.559,0.046c-0.098,0.1-1.051,1.071-0.953,0.971c-4.965-1.401-9.316,0-9.316,0   c-0.103-0.1-0.347-0.324-0.998-0.971l-0.522-0.046v0.54l1.127,1.053C27.821,10.014,27.949,10.041,28.087,10.069z"></path></g></svg>